<svg xmlns="http://www.w3.org/2000/svg" width="860" height="520" viewBox="0 0 860 520">
<rect x="0" y="0" width="100%" height="100%" fill="#ffffff"/>
<text x="430.0" y="28" text-anchor="middle" font-size="20" font-family="monospace">Open Separation Slice at rho = 0.6</text>
<line x1="80" y1="450" x2="836" y2="450" stroke="#222" stroke-width="1.5"/>
<line x1="80" y1="50" x2="80" y2="450" stroke="#222" stroke-width="1.5"/>
<line x1="80.00" y1="450" x2="80.00" y2="456" stroke="#222"/>
<text x="80.00" y="474" text-anchor="middle" font-size="12" font-family="monospace">0</text>
<line x1="269.00" y1="450" x2="269.00" y2="456" stroke="#222"/>
<text x="269.00" y="474" text-anchor="middle" font-size="12" font-family="monospace">0.0875</text>
<line x1="458.00" y1="450" x2="458.00" y2="456" stroke="#222"/>
<text x="458.00" y="474" text-anchor="middle" font-size="12" font-family="monospace">0.175</text>
<line x1="647.00" y1="450" x2="647.00" y2="456" stroke="#222"/>
<text x="647.00" y="474" text-anchor="middle" font-size="12" font-family="monospace">0.262</text>
<line x1="836.00" y1="450" x2="836.00" y2="456" stroke="#222"/>
<text x="836.00" y="474" text-anchor="middle" font-size="12" font-family="monospace">0.35</text>
<line x1="74" y1="450.00" x2="80" y2="450.00" stroke="#222"/>
<text x="70" y="454.00" text-anchor="end" font-size="12" font-family="monospace">-0.0284</text>
<line x1="80" y1="450.00" x2="836" y2="450.00" stroke="#ddd" stroke-width="1"/>
<line x1="74" y1="350.00" x2="80" y2="350.00" stroke="#222"/>
<text x="70" y="354.00" text-anchor="end" font-size="12" font-family="monospace">0.128</text>
<line x1="80" y1="350.00" x2="836" y2="350.00" stroke="#ddd" stroke-width="1"/>
<line x1="74" y1="250.00" x2="80" y2="250.00" stroke="#222"/>
<text x="70" y="254.00" text-anchor="end" font-size="12" font-family="monospace">0.284</text>
<line x1="80" y1="250.00" x2="836" y2="250.00" stroke="#ddd" stroke-width="1"/>
<line x1="74" y1="150.00" x2="80" y2="150.00" stroke="#222"/>
<text x="70" y="154.00" text-anchor="end" font-size="12" font-family="monospace">0.44</text>
<line x1="80" y1="150.00" x2="836" y2="150.00" stroke="#ddd" stroke-width="1"/>
<line x1="74" y1="50.00" x2="80" y2="50.00" stroke="#222"/>
<text x="70" y="54.00" text-anchor="end" font-size="12" font-family="monospace">0.596</text>
<line x1="80" y1="50.00" x2="836" y2="50.00" stroke="#ddd" stroke-width="1"/>
<polyline fill="none" stroke="#bc6c25" stroke-width="2.5" points="80.00,431.82 101.60,425.41 123.20,419.00 144.80,412.60 166.40,406.19 188.00,399.78 209.60,393.38 231.20,386.97 252.80,380.56 274.40,374.16 296.00,367.75 317.60,361.34 339.20,354.94 360.80,348.53 382.40,342.12 404.00,335.72 425.60,329.31 447.20,322.90 468.80,316.50 490.40,310.09 512.00,303.68 533.60,297.28 555.20,290.87 576.80,284.46 598.40,278.06 620.00,271.65 641.60,265.24 663.20,258.84 684.80,252.43 706.40,246.02 728.00,239.62 749.60,233.21 771.20,226.80 792.80,220.40 814.40,213.99 836.00,207.58"/>
<circle cx="80.00" cy="431.82" r="2.2" fill="#bc6c25"/>
<circle cx="101.60" cy="425.41" r="2.2" fill="#bc6c25"/>
<circle cx="123.20" cy="419.00" r="2.2" fill="#bc6c25"/>
<circle cx="144.80" cy="412.60" r="2.2" fill="#bc6c25"/>
<circle cx="166.40" cy="406.19" r="2.2" fill="#bc6c25"/>
<circle cx="188.00" cy="399.78" r="2.2" fill="#bc6c25"/>
<circle cx="209.60" cy="393.38" r="2.2" fill="#bc6c25"/>
<circle cx="231.20" cy="386.97" r="2.2" fill="#bc6c25"/>
<circle cx="252.80" cy="380.56" r="2.2" fill="#bc6c25"/>
<circle cx="274.40" cy="374.16" r="2.2" fill="#bc6c25"/>
<circle cx="296.00" cy="367.75" r="2.2" fill="#bc6c25"/>
<circle cx="317.60" cy="361.34" r="2.2" fill="#bc6c25"/>
<circle cx="339.20" cy="354.94" r="2.2" fill="#bc6c25"/>
<circle cx="360.80" cy="348.53" r="2.2" fill="#bc6c25"/>
<circle cx="382.40" cy="342.12" r="2.2" fill="#bc6c25"/>
<circle cx="404.00" cy="335.72" r="2.2" fill="#bc6c25"/>
<circle cx="425.60" cy="329.31" r="2.2" fill="#bc6c25"/>
<circle cx="447.20" cy="322.90" r="2.2" fill="#bc6c25"/>
<circle cx="468.80" cy="316.50" r="2.2" fill="#bc6c25"/>
<circle cx="490.40" cy="310.09" r="2.2" fill="#bc6c25"/>
<circle cx="512.00" cy="303.68" r="2.2" fill="#bc6c25"/>
<circle cx="533.60" cy="297.28" r="2.2" fill="#bc6c25"/>
<circle cx="555.20" cy="290.87" r="2.2" fill="#bc6c25"/>
<circle cx="576.80" cy="284.46" r="2.2" fill="#bc6c25"/>
<circle cx="598.40" cy="278.06" r="2.2" fill="#bc6c25"/>
<circle cx="620.00" cy="271.65" r="2.2" fill="#bc6c25"/>
<circle cx="641.60" cy="265.24" r="2.2" fill="#bc6c25"/>
<circle cx="663.20" cy="258.84" r="2.2" fill="#bc6c25"/>
<circle cx="684.80" cy="252.43" r="2.2" fill="#bc6c25"/>
<circle cx="706.40" cy="246.02" r="2.2" fill="#bc6c25"/>
<circle cx="728.00" cy="239.62" r="2.2" fill="#bc6c25"/>
<circle cx="749.60" cy="233.21" r="2.2" fill="#bc6c25"/>
<circle cx="771.20" cy="226.80" r="2.2" fill="#bc6c25"/>
<circle cx="792.80" cy="220.40" r="2.2" fill="#bc6c25"/>
<circle cx="814.40" cy="213.99" r="2.2" fill="#bc6c25"/>
<circle cx="836.00" cy="207.58" r="2.2" fill="#bc6c25"/>
<polyline fill="none" stroke="#355070" stroke-width="2.5" points="80.00,68.18 101.60,68.18 123.20,68.18 144.80,68.18 166.40,68.18 188.00,68.18 209.60,68.18 231.20,68.18 252.80,68.18 274.40,68.18 296.00,68.18 317.60,68.18 339.20,68.18 360.80,68.18 382.40,68.18 404.00,68.18 425.60,68.18 447.20,68.18 468.80,68.18 490.40,68.18 512.00,68.18 533.60,68.18 555.20,68.18 576.80,68.18 598.40,68.18 620.00,68.18 641.60,68.18 663.20,68.18 684.80,68.18 706.40,68.18 728.00,68.18 749.60,68.18 771.20,68.18 792.80,68.18 814.40,68.18 836.00,68.18"/>
<circle cx="80.00" cy="68.18" r="2.2" fill="#355070"/>
<circle cx="101.60" cy="68.18" r="2.2" fill="#355070"/>
<circle cx="123.20" cy="68.18" r="2.2" fill="#355070"/>
<circle cx="144.80" cy="68.18" r="2.2" fill="#355070"/>
<circle cx="166.40" cy="68.18" r="2.2" fill="#355070"/>
<circle cx="188.00" cy="68.18" r="2.2" fill="#355070"/>
<circle cx="209.60" cy="68.18" r="2.2" fill="#355070"/>
<circle cx="231.20" cy="68.18" r="2.2" fill="#355070"/>
<circle cx="252.80" cy="68.18" r="2.2" fill="#355070"/>
<circle cx="274.40" cy="68.18" r="2.2" fill="#355070"/>
<circle cx="296.00" cy="68.18" r="2.2" fill="#355070"/>
<circle cx="317.60" cy="68.18" r="2.2" fill="#355070"/>
<circle cx="339.20" cy="68.18" r="2.2" fill="#355070"/>
<circle cx="360.80" cy="68.18" r="2.2" fill="#355070"/>
<circle cx="382.40" cy="68.18" r="2.2" fill="#355070"/>
<circle cx="404.00" cy="68.18" r="2.2" fill="#355070"/>
<circle cx="425.60" cy="68.18" r="2.2" fill="#355070"/>
<circle cx="447.20" cy="68.18" r="2.2" fill="#355070"/>
<circle cx="468.80" cy="68.18" r="2.2" fill="#355070"/>
<circle cx="490.40" cy="68.18" r="2.2" fill="#355070"/>
<circle cx="512.00" cy="68.18" r="2.2" fill="#355070"/>
<circle cx="533.60" cy="68.18" r="2.2" fill="#355070"/>
<circle cx="555.20" cy="68.18" r="2.2" fill="#355070"/>
<circle cx="576.80" cy="68.18" r="2.2" fill="#355070"/>
<circle cx="598.40" cy="68.18" r="2.2" fill="#355070"/>
<circle cx="620.00" cy="68.18" r="2.2" fill="#355070"/>
<circle cx="641.60" cy="68.18" r="2.2" fill="#355070"/>
<circle cx="663.20" cy="68.18" r="2.2" fill="#355070"/>
<circle cx="684.80" cy="68.18" r="2.2" fill="#355070"/>
<circle cx="706.40" cy="68.18" r="2.2" fill="#355070"/>
<circle cx="728.00" cy="68.18" r="2.2" fill="#355070"/>
<circle cx="749.60" cy="68.18" r="2.2" fill="#355070"/>
<circle cx="771.20" cy="68.18" r="2.2" fill="#355070"/>
<circle cx="792.80" cy="68.18" r="2.2" fill="#355070"/>
<circle cx="814.40" cy="68.18" r="2.2" fill="#355070"/>
<circle cx="836.00" cy="68.18" r="2.2" fill="#355070"/>
<rect x="630" y="60" width="190" height="66" fill="#fafafa" stroke="#bbb"/>
<line x1="644" y1="82" x2="672" y2="82" stroke="#bc6c25" stroke-width="2.5"/>
<text x="682" y="86" font-size="13" font-family="monospace">variance gap</text>
<line x1="644" y1="108" x2="672" y2="108" stroke="#355070" stroke-width="2.5"/>
<text x="682" y="112" font-size="13" font-family="monospace">arcsine margin</text>
<text x="458.0" y="504" text-anchor="middle" font-size="14" font-family="monospace">delta</text>
<text x="18" y="250.0" text-anchor="middle" transform="rotate(-90 18 250.0)" font-size="14" font-family="monospace">gap / margin</text>
</svg>