<svg xmlns="http://www.w3.org/2000/svg" width="860" height="520" viewBox="0 0 860 520">
<rect x="0" y="0" width="100%" height="100%" fill="#ffffff"/>
<text x="430.0" y="28" text-anchor="middle" font-size="20" font-family="monospace">Clock By Voting Observer</text>
<line x1="80" y1="440" x2="836" y2="440" stroke="#222" stroke-width="1.5"/>
<line x1="80" y1="50" x2="80" y2="440" stroke="#222" stroke-width="1.5"/>
<line x1="74" y1="440.00" x2="80" y2="440.00" stroke="#222"/>
<text x="70" y="444.00" text-anchor="end" font-size="12" font-family="monospace">0</text>
<line x1="80" y1="440.00" x2="836" y2="440.00" stroke="#ddd" stroke-width="1"/>
<line x1="74" y1="342.50" x2="80" y2="342.50" stroke="#222"/>
<text x="70" y="346.50" text-anchor="end" font-size="12" font-family="monospace">0.177</text>
<line x1="80" y1="342.50" x2="836" y2="342.50" stroke="#ddd" stroke-width="1"/>
<line x1="74" y1="245.00" x2="80" y2="245.00" stroke="#222"/>
<text x="70" y="249.00" text-anchor="end" font-size="12" font-family="monospace">0.354</text>
<line x1="80" y1="245.00" x2="836" y2="245.00" stroke="#ddd" stroke-width="1"/>
<line x1="74" y1="147.50" x2="80" y2="147.50" stroke="#222"/>
<text x="70" y="151.50" text-anchor="end" font-size="12" font-family="monospace">0.531</text>
<line x1="80" y1="147.50" x2="836" y2="147.50" stroke="#ddd" stroke-width="1"/>
<line x1="74" y1="50.00" x2="80" y2="50.00" stroke="#222"/>
<text x="70" y="54.00" text-anchor="end" font-size="12" font-family="monospace">0.707</text>
<line x1="80" y1="50.00" x2="836" y2="50.00" stroke="#ddd" stroke-width="1"/>
<rect x="125.36" y="85.45" width="161.28" height="354.55" fill="#1d3557" stroke="#355c7d"/>
<text x="206.00" y="464" text-anchor="middle" font-size="12" font-family="monospace">plurality</text>
<text x="206.00" y="79.45" text-anchor="middle" font-size="12" font-family="monospace">0.643</text>
<rect x="377.36" y="258.11" width="161.28" height="181.89" fill="#1d3557" stroke="#355c7d"/>
<text x="458.00" y="464" text-anchor="middle" font-size="12" font-family="monospace">approval</text>
<text x="458.00" y="252.11" text-anchor="middle" font-size="12" font-family="monospace">0.33</text>
<rect x="629.36" y="440.00" width="161.28" height="0.00" fill="#1d3557" stroke="#355c7d"/>
<text x="710.00" y="464" text-anchor="middle" font-size="12" font-family="monospace">ranked_choice</text>
<text x="710.00" y="434.00" text-anchor="middle" font-size="12" font-family="monospace">1.89e-15</text>
<text x="18" y="245.0" text-anchor="middle" transform="rotate(-90 18 245.0)" font-size="14" font-family="monospace">clock</text>
</svg>