<svg xmlns="http://www.w3.org/2000/svg" width="860" height="520" viewBox="0 0 860 520">
<rect x="0" y="0" width="100%" height="100%" fill="#ffffff"/>
<text x="430.0" y="28" text-anchor="middle" font-size="20" font-family="monospace">Hidden-Load Spectra Across Voting Observers</text>
<line x1="80" y1="450" x2="836" y2="450" stroke="#222" stroke-width="1.5"/>
<line x1="80" y1="50" x2="80" y2="450" stroke="#222" stroke-width="1.5"/>
<line x1="80.00" y1="450" x2="80.00" y2="456" stroke="#222"/>
<text x="80.00" y="474" text-anchor="middle" font-size="12" font-family="monospace">1</text>
<line x1="269.00" y1="450" x2="269.00" y2="456" stroke="#222"/>
<text x="269.00" y="474" text-anchor="middle" font-size="12" font-family="monospace">1.5</text>
<line x1="458.00" y1="450" x2="458.00" y2="456" stroke="#222"/>
<text x="458.00" y="474" text-anchor="middle" font-size="12" font-family="monospace">2</text>
<line x1="647.00" y1="450" x2="647.00" y2="456" stroke="#222"/>
<text x="647.00" y="474" text-anchor="middle" font-size="12" font-family="monospace">2.5</text>
<line x1="836.00" y1="450" x2="836.00" y2="456" stroke="#222"/>
<text x="836.00" y="474" text-anchor="middle" font-size="12" font-family="monospace">3</text>
<line x1="74" y1="450.00" x2="80" y2="450.00" stroke="#222"/>
<text x="70" y="454.00" text-anchor="end" font-size="12" font-family="monospace">-0.0451</text>
<line x1="80" y1="450.00" x2="836" y2="450.00" stroke="#ddd" stroke-width="1"/>
<line x1="74" y1="350.00" x2="80" y2="350.00" stroke="#222"/>
<text x="70" y="354.00" text-anchor="end" font-size="12" font-family="monospace">0.203</text>
<line x1="80" y1="350.00" x2="836" y2="350.00" stroke="#ddd" stroke-width="1"/>
<line x1="74" y1="250.00" x2="80" y2="250.00" stroke="#222"/>
<text x="70" y="254.00" text-anchor="end" font-size="12" font-family="monospace">0.451</text>
<line x1="80" y1="250.00" x2="836" y2="250.00" stroke="#ddd" stroke-width="1"/>
<line x1="74" y1="150.00" x2="80" y2="150.00" stroke="#222"/>
<text x="70" y="154.00" text-anchor="end" font-size="12" font-family="monospace">0.699</text>
<line x1="80" y1="150.00" x2="836" y2="150.00" stroke="#ddd" stroke-width="1"/>
<line x1="74" y1="50.00" x2="80" y2="50.00" stroke="#222"/>
<text x="70" y="54.00" text-anchor="end" font-size="12" font-family="monospace">0.948</text>
<line x1="80" y1="50.00" x2="836" y2="50.00" stroke="#ddd" stroke-width="1"/>
<polyline fill="none" stroke="#c1121f" stroke-width="2.5" points="80.00,68.18 458.00,431.82 836.00,431.82"/>
<circle cx="80.00" cy="68.18" r="2.2" fill="#c1121f"/>
<circle cx="458.00" cy="431.82" r="2.2" fill="#c1121f"/>
<circle cx="836.00" cy="431.82" r="2.2" fill="#c1121f"/>
<polyline fill="none" stroke="#2a9d8f" stroke-width="2.5" points="80.00,431.82 458.00,274.31 836.00,431.82"/>
<circle cx="80.00" cy="431.82" r="2.2" fill="#2a9d8f"/>
<circle cx="458.00" cy="274.31" r="2.2" fill="#2a9d8f"/>
<circle cx="836.00" cy="431.82" r="2.2" fill="#2a9d8f"/>
<polyline fill="none" stroke="#577590" stroke-width="2.5" points="80.00,431.82 458.00,431.82 836.00,431.82"/>
<circle cx="80.00" cy="431.82" r="2.2" fill="#577590"/>
<circle cx="458.00" cy="431.82" r="2.2" fill="#577590"/>
<circle cx="836.00" cy="431.82" r="2.2" fill="#577590"/>
<rect x="630" y="60" width="190" height="94" fill="#fafafa" stroke="#bbb"/>
<line x1="644" y1="82" x2="672" y2="82" stroke="#c1121f" stroke-width="2.5"/>
<text x="682" y="86" font-size="13" font-family="monospace">plurality</text>
<line x1="644" y1="108" x2="672" y2="108" stroke="#2a9d8f" stroke-width="2.5"/>
<text x="682" y="112" font-size="13" font-family="monospace">approval</text>
<line x1="644" y1="134" x2="672" y2="134" stroke="#577590" stroke-width="2.5"/>
<text x="682" y="138" font-size="13" font-family="monospace">ranked_choice</text>
<text x="458.0" y="504" text-anchor="middle" font-size="14" font-family="monospace">eigenvalue index</text>
<text x="18" y="250.0" text-anchor="middle" transform="rotate(-90 18 250.0)" font-size="14" font-family="monospace">eigenvalue</text>
</svg>