<svg xmlns="http://www.w3.org/2000/svg" width="860" height="520" viewBox="0 0 860 520">
<rect x="0" y="0" width="100%" height="100%" fill="#ffffff"/>
<text x="430.0" y="28" text-anchor="middle" font-size="20" font-family="monospace">Declared Graph-Frontier Hessian Breakpoint</text>
<line x1="80" y1="450" x2="836" y2="450" stroke="#222" stroke-width="1.5"/>
<line x1="80" y1="50" x2="80" y2="450" stroke="#222" stroke-width="1.5"/>
<line x1="80.00" y1="450" x2="80.00" y2="456" stroke="#222"/>
<text x="80.00" y="474" text-anchor="middle" font-size="12" font-family="monospace">0</text>
<line x1="269.00" y1="450" x2="269.00" y2="456" stroke="#222"/>
<text x="269.00" y="474" text-anchor="middle" font-size="12" font-family="monospace">0.6</text>
<line x1="458.00" y1="450" x2="458.00" y2="456" stroke="#222"/>
<text x="458.00" y="474" text-anchor="middle" font-size="12" font-family="monospace">1.2</text>
<line x1="647.00" y1="450" x2="647.00" y2="456" stroke="#222"/>
<text x="647.00" y="474" text-anchor="middle" font-size="12" font-family="monospace">1.8</text>
<line x1="836.00" y1="450" x2="836.00" y2="456" stroke="#222"/>
<text x="836.00" y="474" text-anchor="middle" font-size="12" font-family="monospace">2.4</text>
<line x1="74" y1="450.00" x2="80" y2="450.00" stroke="#222"/>
<text x="70" y="454.00" text-anchor="end" font-size="12" font-family="monospace">-26.3</text>
<line x1="80" y1="450.00" x2="836" y2="450.00" stroke="#ddd" stroke-width="1"/>
<line x1="74" y1="350.00" x2="80" y2="350.00" stroke="#222"/>
<text x="70" y="354.00" text-anchor="end" font-size="12" font-family="monospace">-13.6</text>
<line x1="80" y1="350.00" x2="836" y2="350.00" stroke="#ddd" stroke-width="1"/>
<line x1="74" y1="250.00" x2="80" y2="250.00" stroke="#222"/>
<text x="70" y="254.00" text-anchor="end" font-size="12" font-family="monospace">-0.96</text>
<line x1="80" y1="250.00" x2="836" y2="250.00" stroke="#ddd" stroke-width="1"/>
<line x1="74" y1="150.00" x2="80" y2="150.00" stroke="#222"/>
<text x="70" y="154.00" text-anchor="end" font-size="12" font-family="monospace">11.7</text>
<line x1="80" y1="150.00" x2="836" y2="150.00" stroke="#ddd" stroke-width="1"/>
<line x1="74" y1="50.00" x2="80" y2="50.00" stroke="#222"/>
<text x="70" y="54.00" text-anchor="end" font-size="12" font-family="monospace">24.4</text>
<line x1="80" y1="50.00" x2="836" y2="50.00" stroke="#ddd" stroke-width="1"/>
<polyline fill="none" stroke="#1d3557" stroke-width="2.5" points="80.00,431.82 95.75,431.66 111.50,431.19 127.25,430.40 143.00,429.29 158.75,427.87 174.50,426.14 190.25,424.08 206.00,421.72 221.75,419.03 237.50,416.04 253.25,412.72 269.00,409.09 284.75,405.15 300.50,400.88 316.25,396.31 332.00,391.41 347.75,386.21 363.50,380.68 379.25,374.84 395.00,368.69 410.75,362.22 426.50,355.43 442.25,348.33 458.00,340.91 473.75,333.18 489.50,325.13 505.25,316.76 521.00,308.08 536.75,299.08 552.50,289.77 568.25,280.15 584.00,270.20 599.75,259.94 615.50,249.37 631.25,238.48 647.00,227.27 662.75,215.75 678.50,203.91 694.25,191.76 710.00,179.29 725.75,166.51 741.50,153.41 757.25,139.99 773.00,126.26 788.75,112.22 804.50,97.85 820.25,83.18 836.00,68.18"/>
<circle cx="80.00" cy="431.82" r="2.2" fill="#1d3557"/>
<circle cx="95.75" cy="431.66" r="2.2" fill="#1d3557"/>
<circle cx="111.50" cy="431.19" r="2.2" fill="#1d3557"/>
<circle cx="127.25" cy="430.40" r="2.2" fill="#1d3557"/>
<circle cx="143.00" cy="429.29" r="2.2" fill="#1d3557"/>
<circle cx="158.75" cy="427.87" r="2.2" fill="#1d3557"/>
<circle cx="174.50" cy="426.14" r="2.2" fill="#1d3557"/>
<circle cx="190.25" cy="424.08" r="2.2" fill="#1d3557"/>
<circle cx="206.00" cy="421.72" r="2.2" fill="#1d3557"/>
<circle cx="221.75" cy="419.03" r="2.2" fill="#1d3557"/>
<circle cx="237.50" cy="416.04" r="2.2" fill="#1d3557"/>
<circle cx="253.25" cy="412.72" r="2.2" fill="#1d3557"/>
<circle cx="269.00" cy="409.09" r="2.2" fill="#1d3557"/>
<circle cx="284.75" cy="405.15" r="2.2" fill="#1d3557"/>
<circle cx="300.50" cy="400.88" r="2.2" fill="#1d3557"/>
<circle cx="316.25" cy="396.31" r="2.2" fill="#1d3557"/>
<circle cx="332.00" cy="391.41" r="2.2" fill="#1d3557"/>
<circle cx="347.75" cy="386.21" r="2.2" fill="#1d3557"/>
<circle cx="363.50" cy="380.68" r="2.2" fill="#1d3557"/>
<circle cx="379.25" cy="374.84" r="2.2" fill="#1d3557"/>
<circle cx="395.00" cy="368.69" r="2.2" fill="#1d3557"/>
<circle cx="410.75" cy="362.22" r="2.2" fill="#1d3557"/>
<circle cx="426.50" cy="355.43" r="2.2" fill="#1d3557"/>
<circle cx="442.25" cy="348.33" r="2.2" fill="#1d3557"/>
<circle cx="458.00" cy="340.91" r="2.2" fill="#1d3557"/>
<circle cx="473.75" cy="333.18" r="2.2" fill="#1d3557"/>
<circle cx="489.50" cy="325.13" r="2.2" fill="#1d3557"/>
<circle cx="505.25" cy="316.76" r="2.2" fill="#1d3557"/>
<circle cx="521.00" cy="308.08" r="2.2" fill="#1d3557"/>
<circle cx="536.75" cy="299.08" r="2.2" fill="#1d3557"/>
<circle cx="552.50" cy="289.77" r="2.2" fill="#1d3557"/>
<circle cx="568.25" cy="280.15" r="2.2" fill="#1d3557"/>
<circle cx="584.00" cy="270.20" r="2.2" fill="#1d3557"/>
<circle cx="599.75" cy="259.94" r="2.2" fill="#1d3557"/>
<circle cx="615.50" cy="249.37" r="2.2" fill="#1d3557"/>
<circle cx="631.25" cy="238.48" r="2.2" fill="#1d3557"/>
<circle cx="647.00" cy="227.27" r="2.2" fill="#1d3557"/>
<circle cx="662.75" cy="215.75" r="2.2" fill="#1d3557"/>
<circle cx="678.50" cy="203.91" r="2.2" fill="#1d3557"/>
<circle cx="694.25" cy="191.76" r="2.2" fill="#1d3557"/>
<circle cx="710.00" cy="179.29" r="2.2" fill="#1d3557"/>
<circle cx="725.75" cy="166.51" r="2.2" fill="#1d3557"/>
<circle cx="741.50" cy="153.41" r="2.2" fill="#1d3557"/>
<circle cx="757.25" cy="139.99" r="2.2" fill="#1d3557"/>
<circle cx="773.00" cy="126.26" r="2.2" fill="#1d3557"/>
<circle cx="788.75" cy="112.22" r="2.2" fill="#1d3557"/>
<circle cx="804.50" cy="97.85" r="2.2" fill="#1d3557"/>
<circle cx="820.25" cy="83.18" r="2.2" fill="#1d3557"/>
<circle cx="836.00" cy="68.18" r="2.2" fill="#1d3557"/>
<polyline fill="none" stroke="#c1121f" stroke-width="2.5" points="80.00,431.82 95.75,431.82 111.50,431.82 127.25,431.82 143.00,431.82 158.75,431.82 174.50,431.82 190.25,431.82 206.00,431.82 221.75,431.82 237.50,431.82 253.25,431.82 269.00,431.82 284.75,431.82 300.50,431.82 316.25,431.82 332.00,431.82 347.75,431.82 363.50,431.82 379.25,431.82 395.00,431.82 410.75,431.82 426.50,431.82 442.25,431.82 458.00,431.82 473.75,431.82 489.50,431.82 505.25,431.82 521.00,431.82 536.75,431.82 552.50,431.82 568.25,431.82 584.00,431.82 599.75,431.82 615.50,431.82 631.25,431.82 647.00,431.82 662.75,431.82 678.50,431.82 694.25,431.82 710.00,431.82 725.75,431.82 741.50,431.82 757.25,431.82 773.00,431.82 788.75,431.82 804.50,431.82 820.25,431.82 836.00,431.82"/>
<circle cx="80.00" cy="431.82" r="2.2" fill="#c1121f"/>
<circle cx="95.75" cy="431.82" r="2.2" fill="#c1121f"/>
<circle cx="111.50" cy="431.82" r="2.2" fill="#c1121f"/>
<circle cx="127.25" cy="431.82" r="2.2" fill="#c1121f"/>
<circle cx="143.00" cy="431.82" r="2.2" fill="#c1121f"/>
<circle cx="158.75" cy="431.82" r="2.2" fill="#c1121f"/>
<circle cx="174.50" cy="431.82" r="2.2" fill="#c1121f"/>
<circle cx="190.25" cy="431.82" r="2.2" fill="#c1121f"/>
<circle cx="206.00" cy="431.82" r="2.2" fill="#c1121f"/>
<circle cx="221.75" cy="431.82" r="2.2" fill="#c1121f"/>
<circle cx="237.50" cy="431.82" r="2.2" fill="#c1121f"/>
<circle cx="253.25" cy="431.82" r="2.2" fill="#c1121f"/>
<circle cx="269.00" cy="431.82" r="2.2" fill="#c1121f"/>
<circle cx="284.75" cy="431.82" r="2.2" fill="#c1121f"/>
<circle cx="300.50" cy="431.82" r="2.2" fill="#c1121f"/>
<circle cx="316.25" cy="431.82" r="2.2" fill="#c1121f"/>
<circle cx="332.00" cy="431.82" r="2.2" fill="#c1121f"/>
<circle cx="347.75" cy="431.82" r="2.2" fill="#c1121f"/>
<circle cx="363.50" cy="431.82" r="2.2" fill="#c1121f"/>
<circle cx="379.25" cy="431.82" r="2.2" fill="#c1121f"/>
<circle cx="395.00" cy="431.82" r="2.2" fill="#c1121f"/>
<circle cx="410.75" cy="431.82" r="2.2" fill="#c1121f"/>
<circle cx="426.50" cy="431.82" r="2.2" fill="#c1121f"/>
<circle cx="442.25" cy="431.82" r="2.2" fill="#c1121f"/>
<circle cx="458.00" cy="431.82" r="2.2" fill="#c1121f"/>
<circle cx="473.75" cy="431.82" r="2.2" fill="#c1121f"/>
<circle cx="489.50" cy="431.82" r="2.2" fill="#c1121f"/>
<circle cx="505.25" cy="431.82" r="2.2" fill="#c1121f"/>
<circle cx="521.00" cy="431.82" r="2.2" fill="#c1121f"/>
<circle cx="536.75" cy="431.82" r="2.2" fill="#c1121f"/>
<circle cx="552.50" cy="431.82" r="2.2" fill="#c1121f"/>
<circle cx="568.25" cy="431.82" r="2.2" fill="#c1121f"/>
<circle cx="584.00" cy="431.82" r="2.2" fill="#c1121f"/>
<circle cx="599.75" cy="431.82" r="2.2" fill="#c1121f"/>
<circle cx="615.50" cy="431.82" r="2.2" fill="#c1121f"/>
<circle cx="631.25" cy="431.82" r="2.2" fill="#c1121f"/>
<circle cx="647.00" cy="431.82" r="2.2" fill="#c1121f"/>
<circle cx="662.75" cy="431.82" r="2.2" fill="#c1121f"/>
<circle cx="678.50" cy="431.82" r="2.2" fill="#c1121f"/>
<circle cx="694.25" cy="431.82" r="2.2" fill="#c1121f"/>
<circle cx="710.00" cy="431.82" r="2.2" fill="#c1121f"/>
<circle cx="725.75" cy="431.82" r="2.2" fill="#c1121f"/>
<circle cx="741.50" cy="431.82" r="2.2" fill="#c1121f"/>
<circle cx="757.25" cy="431.82" r="2.2" fill="#c1121f"/>
<circle cx="773.00" cy="431.82" r="2.2" fill="#c1121f"/>
<circle cx="788.75" cy="431.82" r="2.2" fill="#c1121f"/>
<circle cx="804.50" cy="431.82" r="2.2" fill="#c1121f"/>
<circle cx="820.25" cy="431.82" r="2.2" fill="#c1121f"/>
<circle cx="836.00" cy="431.82" r="2.2" fill="#c1121f"/>
<rect x="630" y="60" width="190" height="66" fill="#fafafa" stroke="#bbb"/>
<line x1="644" y1="82" x2="672" y2="82" stroke="#1d3557" stroke-width="2.5"/>
<text x="682" y="86" font-size="13" font-family="monospace">graph Hessian</text>
<line x1="644" y1="108" x2="672" y2="108" stroke="#c1121f" stroke-width="2.5"/>
<text x="682" y="112" font-size="13" font-family="monospace">invalid exact-branch proxy</text>
<text x="458.0" y="504" text-anchor="middle" font-size="14" font-family="monospace">|e|</text>
<text x="18" y="250.0" text-anchor="middle" transform="rotate(-90 18 250.0)" font-size="14" font-family="monospace">second variation</text>
</svg>