<svg xmlns="http://www.w3.org/2000/svg" width="860" height="520" viewBox="0 0 860 520">
<rect x="0" y="0" width="100%" height="100%" fill="#ffffff"/>
<text x="430.0" y="28" text-anchor="middle" font-size="20" font-family="monospace">Two-Mode Squeezed Vacuum: tau and 2 MI</text>
<line x1="80" y1="450" x2="836" y2="450" stroke="#222" stroke-width="1.5"/>
<line x1="80" y1="50" x2="80" y2="450" stroke="#222" stroke-width="1.5"/>
<line x1="80.00" y1="450" x2="80.00" y2="456" stroke="#222"/>
<text x="80.00" y="474" text-anchor="middle" font-size="12" font-family="monospace">0</text>
<line x1="269.00" y1="450" x2="269.00" y2="456" stroke="#222"/>
<text x="269.00" y="474" text-anchor="middle" font-size="12" font-family="monospace">0.4</text>
<line x1="458.00" y1="450" x2="458.00" y2="456" stroke="#222"/>
<text x="458.00" y="474" text-anchor="middle" font-size="12" font-family="monospace">0.8</text>
<line x1="647.00" y1="450" x2="647.00" y2="456" stroke="#222"/>
<text x="647.00" y="474" text-anchor="middle" font-size="12" font-family="monospace">1.2</text>
<line x1="836.00" y1="450" x2="836.00" y2="456" stroke="#222"/>
<text x="836.00" y="474" text-anchor="middle" font-size="12" font-family="monospace">1.6</text>
<line x1="74" y1="450.00" x2="80" y2="450.00" stroke="#222"/>
<text x="70" y="454.00" text-anchor="end" font-size="12" font-family="monospace">-0.502</text>
<line x1="80" y1="450.00" x2="836" y2="450.00" stroke="#ddd" stroke-width="1"/>
<line x1="74" y1="350.00" x2="80" y2="350.00" stroke="#222"/>
<text x="70" y="354.00" text-anchor="end" font-size="12" font-family="monospace">2.26</text>
<line x1="80" y1="350.00" x2="836" y2="350.00" stroke="#ddd" stroke-width="1"/>
<line x1="74" y1="250.00" x2="80" y2="250.00" stroke="#222"/>
<text x="70" y="254.00" text-anchor="end" font-size="12" font-family="monospace">5.02</text>
<line x1="80" y1="250.00" x2="836" y2="250.00" stroke="#ddd" stroke-width="1"/>
<line x1="74" y1="150.00" x2="80" y2="150.00" stroke="#222"/>
<text x="70" y="154.00" text-anchor="end" font-size="12" font-family="monospace">7.78</text>
<line x1="80" y1="150.00" x2="836" y2="150.00" stroke="#ddd" stroke-width="1"/>
<line x1="74" y1="50.00" x2="80" y2="50.00" stroke="#222"/>
<text x="70" y="54.00" text-anchor="end" font-size="12" font-family="monospace">10.5</text>
<line x1="80" y1="50.00" x2="836" y2="50.00" stroke="#ddd" stroke-width="1"/>
<polyline fill="none" stroke="#004488" stroke-width="2.5" points="80.00,431.82 103.62,431.09 127.25,428.94 150.88,425.39 174.50,420.52 198.12,414.41 221.75,407.16 245.38,398.87 269.00,389.67 292.62,379.66 316.25,368.94 339.88,357.61 363.50,345.76 387.12,333.46 410.75,320.79 434.38,307.81 458.00,294.57 481.62,281.11 505.25,267.46 528.88,253.66 552.50,239.74 576.12,225.72 599.75,211.61 623.38,197.44 647.00,183.20 670.62,168.92 694.25,154.60 717.88,140.25 741.50,125.87 765.13,111.47 788.75,97.06 812.38,82.62 836.00,68.18"/>
<circle cx="80.00" cy="431.82" r="2.2" fill="#004488"/>
<circle cx="103.62" cy="431.09" r="2.2" fill="#004488"/>
<circle cx="127.25" cy="428.94" r="2.2" fill="#004488"/>
<circle cx="150.88" cy="425.39" r="2.2" fill="#004488"/>
<circle cx="174.50" cy="420.52" r="2.2" fill="#004488"/>
<circle cx="198.12" cy="414.41" r="2.2" fill="#004488"/>
<circle cx="221.75" cy="407.16" r="2.2" fill="#004488"/>
<circle cx="245.38" cy="398.87" r="2.2" fill="#004488"/>
<circle cx="269.00" cy="389.67" r="2.2" fill="#004488"/>
<circle cx="292.62" cy="379.66" r="2.2" fill="#004488"/>
<circle cx="316.25" cy="368.94" r="2.2" fill="#004488"/>
<circle cx="339.88" cy="357.61" r="2.2" fill="#004488"/>
<circle cx="363.50" cy="345.76" r="2.2" fill="#004488"/>
<circle cx="387.12" cy="333.46" r="2.2" fill="#004488"/>
<circle cx="410.75" cy="320.79" r="2.2" fill="#004488"/>
<circle cx="434.38" cy="307.81" r="2.2" fill="#004488"/>
<circle cx="458.00" cy="294.57" r="2.2" fill="#004488"/>
<circle cx="481.62" cy="281.11" r="2.2" fill="#004488"/>
<circle cx="505.25" cy="267.46" r="2.2" fill="#004488"/>
<circle cx="528.88" cy="253.66" r="2.2" fill="#004488"/>
<circle cx="552.50" cy="239.74" r="2.2" fill="#004488"/>
<circle cx="576.12" cy="225.72" r="2.2" fill="#004488"/>
<circle cx="599.75" cy="211.61" r="2.2" fill="#004488"/>
<circle cx="623.38" cy="197.44" r="2.2" fill="#004488"/>
<circle cx="647.00" cy="183.20" r="2.2" fill="#004488"/>
<circle cx="670.62" cy="168.92" r="2.2" fill="#004488"/>
<circle cx="694.25" cy="154.60" r="2.2" fill="#004488"/>
<circle cx="717.88" cy="140.25" r="2.2" fill="#004488"/>
<circle cx="741.50" cy="125.87" r="2.2" fill="#004488"/>
<circle cx="765.13" cy="111.47" r="2.2" fill="#004488"/>
<circle cx="788.75" cy="97.06" r="2.2" fill="#004488"/>
<circle cx="812.38" cy="82.62" r="2.2" fill="#004488"/>
<circle cx="836.00" cy="68.18" r="2.2" fill="#004488"/>
<polyline fill="none" stroke="#bb5566" stroke-width="2.5" points="80.00,431.82 103.62,431.09 127.25,428.94 150.88,425.39 174.50,420.52 198.12,414.41 221.75,407.16 245.38,398.87 269.00,389.67 292.62,379.66 316.25,368.94 339.88,357.61 363.50,345.76 387.12,333.46 410.75,320.79 434.38,307.81 458.00,294.57 481.62,281.11 505.25,267.46 528.88,253.66 552.50,239.74 576.12,225.72 599.75,211.61 623.38,197.44 647.00,183.20 670.62,168.92 694.25,154.60 717.88,140.25 741.50,125.87 765.13,111.47 788.75,97.06 812.38,82.62 836.00,68.18"/>
<circle cx="80.00" cy="431.82" r="2.2" fill="#bb5566"/>
<circle cx="103.62" cy="431.09" r="2.2" fill="#bb5566"/>
<circle cx="127.25" cy="428.94" r="2.2" fill="#bb5566"/>
<circle cx="150.88" cy="425.39" r="2.2" fill="#bb5566"/>
<circle cx="174.50" cy="420.52" r="2.2" fill="#bb5566"/>
<circle cx="198.12" cy="414.41" r="2.2" fill="#bb5566"/>
<circle cx="221.75" cy="407.16" r="2.2" fill="#bb5566"/>
<circle cx="245.38" cy="398.87" r="2.2" fill="#bb5566"/>
<circle cx="269.00" cy="389.67" r="2.2" fill="#bb5566"/>
<circle cx="292.62" cy="379.66" r="2.2" fill="#bb5566"/>
<circle cx="316.25" cy="368.94" r="2.2" fill="#bb5566"/>
<circle cx="339.88" cy="357.61" r="2.2" fill="#bb5566"/>
<circle cx="363.50" cy="345.76" r="2.2" fill="#bb5566"/>
<circle cx="387.12" cy="333.46" r="2.2" fill="#bb5566"/>
<circle cx="410.75" cy="320.79" r="2.2" fill="#bb5566"/>
<circle cx="434.38" cy="307.81" r="2.2" fill="#bb5566"/>
<circle cx="458.00" cy="294.57" r="2.2" fill="#bb5566"/>
<circle cx="481.62" cy="281.11" r="2.2" fill="#bb5566"/>
<circle cx="505.25" cy="267.46" r="2.2" fill="#bb5566"/>
<circle cx="528.88" cy="253.66" r="2.2" fill="#bb5566"/>
<circle cx="552.50" cy="239.74" r="2.2" fill="#bb5566"/>
<circle cx="576.12" cy="225.72" r="2.2" fill="#bb5566"/>
<circle cx="599.75" cy="211.61" r="2.2" fill="#bb5566"/>
<circle cx="623.38" cy="197.44" r="2.2" fill="#bb5566"/>
<circle cx="647.00" cy="183.20" r="2.2" fill="#bb5566"/>
<circle cx="670.62" cy="168.92" r="2.2" fill="#bb5566"/>
<circle cx="694.25" cy="154.60" r="2.2" fill="#bb5566"/>
<circle cx="717.88" cy="140.25" r="2.2" fill="#bb5566"/>
<circle cx="741.50" cy="125.87" r="2.2" fill="#bb5566"/>
<circle cx="765.13" cy="111.47" r="2.2" fill="#bb5566"/>
<circle cx="788.75" cy="97.06" r="2.2" fill="#bb5566"/>
<circle cx="812.38" cy="82.62" r="2.2" fill="#bb5566"/>
<circle cx="836.00" cy="68.18" r="2.2" fill="#bb5566"/>
<rect x="630" y="60" width="190" height="66" fill="#fafafa" stroke="#bbb"/>
<line x1="644" y1="82" x2="672" y2="82" stroke="#004488" stroke-width="2.5"/>
<text x="682" y="86" font-size="13" font-family="monospace">tau</text>
<line x1="644" y1="108" x2="672" y2="108" stroke="#bb5566" stroke-width="2.5"/>
<text x="682" y="112" font-size="13" font-family="monospace">2 MI</text>
<text x="458.0" y="504" text-anchor="middle" font-size="14" font-family="monospace">squeezing r</text>
<text x="18" y="250.0" text-anchor="middle" transform="rotate(-90 18 250.0)" font-size="14" font-family="monospace">value</text>
</svg>