<svg xmlns="http://www.w3.org/2000/svg" width="860" height="520" viewBox="0 0 860 520">
<rect x="0" y="0" width="100%" height="100%" fill="#ffffff"/>
<text x="430.0" y="28" text-anchor="middle" font-size="20" font-family="monospace">Two-Mode Squeezed Vacuum Residual</text>
<line x1="80" y1="450" x2="836" y2="450" stroke="#222" stroke-width="1.5"/>
<line x1="80" y1="50" x2="80" y2="450" stroke="#222" stroke-width="1.5"/>
<line x1="80.00" y1="450" x2="80.00" y2="456" stroke="#222"/>
<text x="80.00" y="474" text-anchor="middle" font-size="12" font-family="monospace">0</text>
<line x1="269.00" y1="450" x2="269.00" y2="456" stroke="#222"/>
<text x="269.00" y="474" text-anchor="middle" font-size="12" font-family="monospace">0.4</text>
<line x1="458.00" y1="450" x2="458.00" y2="456" stroke="#222"/>
<text x="458.00" y="474" text-anchor="middle" font-size="12" font-family="monospace">0.8</text>
<line x1="647.00" y1="450" x2="647.00" y2="456" stroke="#222"/>
<text x="647.00" y="474" text-anchor="middle" font-size="12" font-family="monospace">1.2</text>
<line x1="836.00" y1="450" x2="836.00" y2="456" stroke="#222"/>
<text x="836.00" y="474" text-anchor="middle" font-size="12" font-family="monospace">1.6</text>
<line x1="74" y1="450.00" x2="80" y2="450.00" stroke="#222"/>
<text x="70" y="454.00" text-anchor="end" font-size="12" font-family="monospace">-4.53e-15</text>
<line x1="80" y1="450.00" x2="836" y2="450.00" stroke="#ddd" stroke-width="1"/>
<line x1="74" y1="350.00" x2="80" y2="350.00" stroke="#222"/>
<text x="70" y="354.00" text-anchor="end" font-size="12" font-family="monospace">2.04e-14</text>
<line x1="80" y1="350.00" x2="836" y2="350.00" stroke="#ddd" stroke-width="1"/>
<line x1="74" y1="250.00" x2="80" y2="250.00" stroke="#222"/>
<text x="70" y="254.00" text-anchor="end" font-size="12" font-family="monospace">4.53e-14</text>
<line x1="80" y1="250.00" x2="836" y2="250.00" stroke="#ddd" stroke-width="1"/>
<line x1="74" y1="150.00" x2="80" y2="150.00" stroke="#222"/>
<text x="70" y="154.00" text-anchor="end" font-size="12" font-family="monospace">7.02e-14</text>
<line x1="80" y1="150.00" x2="836" y2="150.00" stroke="#ddd" stroke-width="1"/>
<line x1="74" y1="50.00" x2="80" y2="50.00" stroke="#222"/>
<text x="70" y="54.00" text-anchor="end" font-size="12" font-family="monospace">9.51e-14</text>
<line x1="80" y1="50.00" x2="836" y2="50.00" stroke="#ddd" stroke-width="1"/>
<polyline fill="none" stroke="#228833" stroke-width="2.5" points="80.00,431.82 103.62,430.69 127.25,431.71 150.88,431.26 174.50,431.15 198.12,430.70 221.75,431.37 245.38,431.37 269.00,430.04 292.62,430.93 316.25,430.93 339.88,424.69 363.50,430.04 387.12,430.04 410.75,430.04 434.38,428.25 458.00,415.78 481.62,431.82 505.25,428.25 528.88,421.12 552.50,417.56 576.12,428.25 599.75,403.30 623.38,328.43 647.00,424.69 670.62,424.69 694.25,371.21 717.88,374.78 741.50,274.96 765.13,374.78 788.75,225.04 812.38,381.91 836.00,68.18"/>
<circle cx="80.00" cy="431.82" r="2.2" fill="#228833"/>
<circle cx="103.62" cy="430.69" r="2.2" fill="#228833"/>
<circle cx="127.25" cy="431.71" r="2.2" fill="#228833"/>
<circle cx="150.88" cy="431.26" r="2.2" fill="#228833"/>
<circle cx="174.50" cy="431.15" r="2.2" fill="#228833"/>
<circle cx="198.12" cy="430.70" r="2.2" fill="#228833"/>
<circle cx="221.75" cy="431.37" r="2.2" fill="#228833"/>
<circle cx="245.38" cy="431.37" r="2.2" fill="#228833"/>
<circle cx="269.00" cy="430.04" r="2.2" fill="#228833"/>
<circle cx="292.62" cy="430.93" r="2.2" fill="#228833"/>
<circle cx="316.25" cy="430.93" r="2.2" fill="#228833"/>
<circle cx="339.88" cy="424.69" r="2.2" fill="#228833"/>
<circle cx="363.50" cy="430.04" r="2.2" fill="#228833"/>
<circle cx="387.12" cy="430.04" r="2.2" fill="#228833"/>
<circle cx="410.75" cy="430.04" r="2.2" fill="#228833"/>
<circle cx="434.38" cy="428.25" r="2.2" fill="#228833"/>
<circle cx="458.00" cy="415.78" r="2.2" fill="#228833"/>
<circle cx="481.62" cy="431.82" r="2.2" fill="#228833"/>
<circle cx="505.25" cy="428.25" r="2.2" fill="#228833"/>
<circle cx="528.88" cy="421.12" r="2.2" fill="#228833"/>
<circle cx="552.50" cy="417.56" r="2.2" fill="#228833"/>
<circle cx="576.12" cy="428.25" r="2.2" fill="#228833"/>
<circle cx="599.75" cy="403.30" r="2.2" fill="#228833"/>
<circle cx="623.38" cy="328.43" r="2.2" fill="#228833"/>
<circle cx="647.00" cy="424.69" r="2.2" fill="#228833"/>
<circle cx="670.62" cy="424.69" r="2.2" fill="#228833"/>
<circle cx="694.25" cy="371.21" r="2.2" fill="#228833"/>
<circle cx="717.88" cy="374.78" r="2.2" fill="#228833"/>
<circle cx="741.50" cy="274.96" r="2.2" fill="#228833"/>
<circle cx="765.13" cy="374.78" r="2.2" fill="#228833"/>
<circle cx="788.75" cy="225.04" r="2.2" fill="#228833"/>
<circle cx="812.38" cy="381.91" r="2.2" fill="#228833"/>
<circle cx="836.00" cy="68.18" r="2.2" fill="#228833"/>
<rect x="630" y="60" width="190" height="38" fill="#fafafa" stroke="#bbb"/>
<line x1="644" y1="82" x2="672" y2="82" stroke="#228833" stroke-width="2.5"/>
<text x="682" y="86" font-size="13" font-family="monospace">|tau - 2 MI|</text>
<text x="458.0" y="504" text-anchor="middle" font-size="14" font-family="monospace">squeezing r</text>
<text x="18" y="250.0" text-anchor="middle" transform="rotate(-90 18 250.0)" font-size="14" font-family="monospace">absolute residual</text>
</svg>